# xmcd
#
# Track frame offsets: 
#        150
#        14551
#        36412
#        51084
#        68224
#        88404
#        119539
#        133129
#        160579
#        174709
#        198836
#
# Disc length: 3114 seconds
#
# Revision: 1
# Processed by: cddbd v1.5.2PL0 Copyright (c) Steve Scherf et al.
# Submitted via: ExactAudioCopy v1.0b2
#
DISCID=9f0c280b
DTITLE=The Miracles - City Of Angels
DYEAR=1975
DGENRE=Soul/Funk
TTITLE0=Overture
TTITLE1=City Of Angels
TTITLE2=Free Press
TTITLE3=Ain't Nobody Straight In L.A.
TTITLE4=Night Life
TTITLE5=Love Machine
TTITLE6=My Name Is Michael
TTITLE7=Poor Charlotte
TTITLE8=Waldo Roderick DeHammersmith
TTITLE9=Smog
TTITLE10=Love Machine (Instrumental)
EXTD=
EXTT0=
EXTT1=
EXTT2=
EXTT3=
EXTT4=
EXTT5=
EXTT6=
EXTT7=
EXTT8=
EXTT9=
EXTT10=
PLAYORDER=
